<?xml version="1.0" encoding="utf-8"?>
<!-- Generator: Adobe Illustrator 21.0.0, SVG Export Plug-In . SVG Version: 6.00 Build 0)  -->
<svg version="1.1" id="Layer_2" xmlns="http://www.w3.org/2000/svg" xmlns:xlink="http://www.w3.org/1999/xlink" x="0px" y="0px"
	 viewBox="0 0 1400 1400" style="enable-background:new 0 0 1400 1400;" xml:space="preserve">
<style type="text/css">
	.st0{fill:#212121;}
	.st1{fill:#BB883F;}
	.st2{fill:#CAAE7C;}
</style>
<rect x="-1.5" y="5.5" class="st0" width="1400" height="1400"/>
<g>
	<g>
		<path class="st1" d="M501.9,947v8.5c0,0.4,0.1,0.7,0.3,0.9c0.2,0.2,0.5,0.4,0.9,0.5v0.6h-8v-0.6c0.5-0.1,0.8-0.3,0.9-0.5
			c0.2-0.2,0.3-0.5,0.3-0.9v-21.8c0-0.4-0.1-0.7-0.3-0.9c-0.2-0.2-0.5-0.4-0.9-0.5v-0.6h16.1c1.9,0,3.4,0.1,4.5,0.4
			c1.1,0.3,2.1,0.7,2.9,1.3c0.9,0.6,1.5,1.5,2,2.5c0.5,1.1,0.7,2.2,0.7,3.4c0,1.7-0.5,3.3-1.4,4.6c-0.8,1.1-1.9,1.9-3.2,2.4
			c-1.3,0.5-3.2,0.7-5.6,0.7H501.9z M501.9,942.8h8.6c1.7,0,2.9-0.2,3.6-0.5c0.4-0.2,0.8-0.6,1.1-1.1c0.3-0.5,0.4-1.1,0.4-1.7
			c0-0.6-0.1-1.2-0.4-1.7c-0.3-0.5-0.6-0.9-1.1-1.1c-0.7-0.4-1.9-0.5-3.6-0.5h-8.6V942.8z"/>
		<path class="st1" d="M531.5,947v8.6c0,0.4,0.1,0.7,0.3,0.9c0.2,0.2,0.5,0.4,0.9,0.5v0.6h-8v-0.6c0.5-0.1,0.8-0.3,0.9-0.5
			c0.2-0.2,0.3-0.5,0.3-0.9v-21.8c0-0.4-0.1-0.7-0.3-0.9c-0.2-0.2-0.5-0.4-0.9-0.5v-0.6h16.1c2,0,3.5,0.1,4.7,0.3
			c1.2,0.2,2.2,0.6,3,1.2c1,0.7,1.7,1.5,2.2,2.7c0.5,1.1,0.7,2.2,0.7,3.5c0,4.2-2.3,6.7-7,7.4l5,7.1c0.9,1.2,1.5,2.1,1.9,2.4
			c0.4,0.4,0.9,0.6,1.5,0.6v0.6h-9.3v-0.6c0.6-0.1,1-0.3,1-0.7c0-0.2-0.3-0.8-0.9-1.6l-5.2-7.6H531.5z M531.5,942.7h8.7
			c1.3,0,2.2,0,2.7-0.1c0.5-0.1,1-0.2,1.5-0.5c1-0.5,1.4-1.4,1.4-2.8c0-1.3-0.5-2.3-1.4-2.8c-0.5-0.3-0.9-0.4-1.4-0.5
			c-0.5-0.1-1.4-0.1-2.7-0.1h-8.7V942.7z"/>
		<path class="st1" d="M562.8,946.2v7.1h16.6c0.4,0,0.7-0.1,0.9-0.3c0.2-0.2,0.4-0.5,0.5-0.9h0.6v6.7h-0.6c-0.1-0.5-0.3-0.8-0.5-0.9
			c-0.2-0.2-0.5-0.3-0.9-0.3h-23.4v-0.6c0.5-0.1,0.8-0.3,0.9-0.5c0.2-0.2,0.3-0.5,0.3-0.9v-21.8c0-0.4-0.1-0.7-0.3-0.9
			c-0.2-0.2-0.5-0.4-0.9-0.5v-0.6h23c0.4,0,0.7-0.1,0.9-0.3c0.2-0.2,0.4-0.5,0.5-0.9h0.6v6.7h-0.6c-0.1-0.4-0.3-0.8-0.5-0.9
			c-0.2-0.2-0.5-0.3-0.9-0.3h-16.1v6.1h10.5c0.4,0,0.7-0.1,0.9-0.3c0.2-0.2,0.4-0.5,0.5-0.9h0.6v6.5h-0.6c-0.1-0.4-0.3-0.8-0.5-0.9
			c-0.2-0.2-0.5-0.3-0.9-0.3H562.8z"/>
		<path class="st1" d="M601.2,957.5l-9.5-17.8v15.8c0,0.4,0.1,0.7,0.3,0.9c0.2,0.2,0.5,0.4,0.9,0.5v0.6h-7.6v-0.6
			c0.5-0.1,0.8-0.3,0.9-0.5c0.2-0.2,0.3-0.5,0.3-0.9v-21.8c0-0.4-0.1-0.7-0.3-0.9c-0.2-0.2-0.5-0.4-0.9-0.5v-0.6h9.9v0.6
			c-0.6,0.2-0.9,0.5-0.9,1c0,0.3,0.1,0.5,0.3,0.9l7,13.3l7.1-13.1c0.3-0.6,0.5-1,0.5-1.3c0-0.5-0.3-0.8-0.9-0.9v-0.6h9.8v0.6
			c-0.5,0.1-0.8,0.3-0.9,0.5c-0.2,0.2-0.3,0.5-0.3,0.9v21.8c0,0.4,0.1,0.7,0.3,0.9c0.2,0.2,0.5,0.4,0.9,0.5v0.6h-8v-0.6
			c0.4-0.1,0.8-0.3,0.9-0.5c0.2-0.2,0.3-0.5,0.3-0.9v-15.8L601.2,957.5z"/>
		<path class="st1" d="M623.9,955.5v-21.8c0-0.4-0.1-0.7-0.3-0.9c-0.2-0.2-0.5-0.4-0.9-0.5v-0.6h8v0.6c-0.5,0.1-0.8,0.3-0.9,0.5
			c-0.2,0.2-0.3,0.5-0.3,0.9v21.8c0,0.4,0.1,0.7,0.3,0.9c0.2,0.2,0.5,0.4,0.9,0.5v0.6h-8v-0.6c0.5-0.1,0.8-0.3,0.9-0.5
			C623.8,956.2,623.9,955.9,623.9,955.5z"/>
		<path class="st1" d="M661.6,933.7v14.5c0,2.7-0.5,4.8-1.5,6.1c-1.8,2.4-5.6,3.7-11.2,3.7c-4.1,0-7.2-0.7-9.4-2
			c-1.3-0.8-2.2-1.8-2.6-3.1c-0.5-1.3-0.7-2.9-0.7-4.7v-14.5c0-0.4-0.1-0.7-0.3-0.9c-0.2-0.2-0.5-0.4-0.9-0.5v-0.6h8v0.6
			c-0.4,0.1-0.8,0.3-0.9,0.5c-0.2,0.2-0.3,0.5-0.3,0.9v12.9c0,1.5,0.1,2.6,0.2,3.3c0.2,0.7,0.5,1.3,0.9,1.8c1.2,1.3,3.3,1.9,6.2,1.9
			c2.9,0,5-0.6,6.2-1.9c0.4-0.5,0.7-1.1,0.9-1.8c0.2-0.7,0.2-1.8,0.2-3.3v-12.9c0-0.4-0.1-0.7-0.3-0.9c-0.2-0.2-0.5-0.4-0.9-0.5
			v-0.6h7.6v0.6c-0.5,0.1-0.8,0.3-0.9,0.5C661.7,933,661.6,933.3,661.6,933.7z"/>
		<path class="st1" d="M682.8,957.5l-9.5-17.8v15.8c0,0.4,0.1,0.7,0.3,0.9c0.2,0.2,0.5,0.4,0.9,0.5v0.6H667v-0.6
			c0.5-0.1,0.8-0.3,0.9-0.5c0.2-0.2,0.3-0.5,0.3-0.9v-21.8c0-0.4-0.1-0.7-0.3-0.9c-0.2-0.2-0.5-0.4-0.9-0.5v-0.6h9.9v0.6
			c-0.6,0.2-0.9,0.5-0.9,1c0,0.3,0.1,0.5,0.3,0.9l7,13.3l7.1-13.1c0.3-0.6,0.5-1,0.5-1.3c0-0.5-0.3-0.8-0.9-0.9v-0.6h9.7v0.6
			c-0.5,0.1-0.8,0.3-0.9,0.5c-0.2,0.2-0.3,0.5-0.3,0.9v21.8c0,0.4,0.1,0.7,0.3,0.9c0.2,0.2,0.5,0.4,0.9,0.5v0.6h-8v-0.6
			c0.4-0.1,0.8-0.3,0.9-0.5c0.2-0.2,0.3-0.5,0.3-0.9v-15.8L682.8,957.5z"/>
		<path class="st1" d="M739,954.2l2,2.1c0.5,0.5,0.8,0.8,0.9,0.9c0.2,0.1,0.3,0.2,0.6,0.2c0.2,0,0.5-0.1,0.9-0.2l0.4,0.5l-5.5,5
			l-0.4-0.5c0.3-0.4,0.4-0.7,0.4-0.9c0-0.2-0.4-0.8-1.1-1.6l-2.2-2.7c-1.9,0.8-4.1,1.1-6.8,1.1c-4.4,0-7.9-1.2-10.5-3.6
			c-1.4-1.3-2.5-2.9-3.2-4.7c-0.6-1.6-1-3.3-1-5c0-2.6,0.7-4.9,2-7.1c2.6-4.2,6.9-6.3,12.8-6.3c4.5,0,8,1.2,10.6,3.6
			c1.4,1.3,2.5,2.8,3.2,4.6c0.6,1.6,1,3.3,1,5C743.1,948.4,741.7,951.6,739,954.2z M735.3,950.4c1.3-1.7,2-3.6,2-5.8
			c0-2.8-1-5-2.9-6.8c-1.6-1.5-3.7-2.2-6.2-2.2c-2.5,0-4.6,0.7-6.2,2.2c-1.9,1.7-2.9,4-2.9,6.8c0,2.8,1,5.1,2.9,6.8
			c1.6,1.5,3.7,2.2,6.2,2.2c1.2,0,2.3-0.2,3.5-0.6c-0.1-0.2-0.3-0.3-0.4-0.5c-1.3-1.7-2.9-2.8-4.7-3.2v-0.5c0.9-0.7,1.9-1.1,3.1-1.1
			c0.8,0,1.7,0.2,2.5,0.6C733.1,948.7,734.1,949.4,735.3,950.4z"/>
		<path class="st1" d="M773.3,933.7v14.5c0,2.7-0.5,4.8-1.5,6.1c-1.8,2.4-5.6,3.7-11.2,3.7c-4.1,0-7.2-0.7-9.4-2
			c-1.3-0.8-2.2-1.8-2.6-3.1c-0.5-1.3-0.7-2.9-0.7-4.7v-14.5c0-0.4-0.1-0.7-0.3-0.9c-0.2-0.2-0.5-0.4-0.9-0.5v-0.6h8v0.6
			c-0.4,0.1-0.8,0.3-0.9,0.5c-0.2,0.2-0.3,0.5-0.3,0.9v12.9c0,1.5,0.1,2.6,0.2,3.3c0.2,0.7,0.5,1.3,0.9,1.8c1.2,1.3,3.3,1.9,6.2,1.9
			c2.9,0,5-0.6,6.2-1.9c0.4-0.5,0.7-1.1,0.9-1.8c0.2-0.7,0.2-1.8,0.2-3.3v-12.9c0-0.4-0.1-0.7-0.3-0.9c-0.2-0.2-0.5-0.4-0.9-0.5
			v-0.6h7.6v0.6c-0.5,0.1-0.8,0.3-0.9,0.5C773.4,933,773.3,933.3,773.3,933.7z"/>
		<path class="st1" d="M795.9,950.9h-11.7l-1.7,3.6c-0.2,0.5-0.4,0.9-0.4,1.2c0,0.6,0.4,0.9,1.3,1.2v0.6h-8.5v-0.6
			c0.5-0.1,0.9-0.3,1.2-0.5c0.3-0.3,0.6-0.7,0.9-1.5l9.5-19.8c0.3-0.6,0.5-1.1,0.5-1.5c0-0.6-0.4-1-1.1-1.2v-0.6h9.1v0.6
			c-0.7,0.2-1.1,0.6-1.1,1.1c0,0.4,0.1,0.8,0.4,1.2l9.8,19.9c0.4,0.8,0.8,1.4,1.1,1.7c0.3,0.3,0.7,0.5,1.3,0.6v0.6h-9.5v-0.6
			c0.8-0.1,1.3-0.5,1.3-1.2c0-0.3-0.1-0.7-0.4-1.2L795.9,950.9z M794.2,947.4l-4.2-9.2l-4.2,9.2H794.2z"/>
		<path class="st1" d="M815.3,953.2h15.8c0.4,0,0.7-0.1,0.9-0.3c0.2-0.2,0.4-0.5,0.5-0.9h0.6v6.7h-0.6c-0.1-0.5-0.3-0.8-0.5-0.9
			c-0.2-0.2-0.5-0.3-0.9-0.3h-22.7v-0.6c0.5-0.1,0.8-0.3,0.9-0.5c0.2-0.2,0.3-0.5,0.3-0.9v-21.8c0-0.4-0.1-0.7-0.3-0.9
			c-0.2-0.2-0.5-0.4-0.9-0.5v-0.6h8v0.6c-0.5,0.1-0.8,0.3-0.9,0.5c-0.2,0.2-0.3,0.5-0.3,0.9V953.2z"/>
		<path class="st1" d="M837,955.5v-21.8c0-0.4-0.1-0.7-0.3-0.9c-0.2-0.2-0.5-0.4-0.9-0.5v-0.6h8v0.6c-0.5,0.1-0.8,0.3-0.9,0.5
			c-0.2,0.2-0.3,0.5-0.3,0.9v21.8c0,0.4,0.1,0.7,0.3,0.9c0.2,0.2,0.5,0.4,0.9,0.5v0.6h-8v-0.6c0.5-0.1,0.8-0.3,0.9-0.5
			C836.9,956.2,837,955.9,837,955.5z"/>
		<path class="st1" d="M862,935.9v19.6c0,0.4,0.1,0.7,0.3,0.9c0.2,0.2,0.5,0.4,0.9,0.5v0.6h-8v-0.6c0.5-0.1,0.8-0.3,0.9-0.5
			c0.2-0.2,0.3-0.5,0.3-0.9v-19.6h-8c-0.4,0-0.7,0.1-0.9,0.3c-0.2,0.2-0.4,0.5-0.5,0.9h-0.6v-6.7h0.6c0.1,0.5,0.3,0.8,0.5,0.9
			c0.2,0.2,0.5,0.3,0.9,0.3H870c0.4,0,0.7-0.1,0.9-0.3c0.2-0.2,0.4-0.5,0.5-0.9h0.6v6.7h-0.6c-0.1-0.5-0.3-0.8-0.5-0.9
			c-0.2-0.2-0.5-0.3-0.9-0.3H862z"/>
		<path class="st1" d="M890.7,946.7v8.8c0,0.4,0.1,0.7,0.3,0.9c0.2,0.2,0.5,0.4,0.9,0.5v0.6h-8.1v-0.6c0.5-0.1,0.8-0.3,1-0.5
			c0.2-0.2,0.3-0.5,0.3-0.9v-8.8l-8.3-11.7c-0.7-1-1.3-1.7-1.7-2c-0.4-0.3-0.9-0.6-1.5-0.6v-0.6h10.2v0.6c-0.8,0.1-1.3,0.5-1.3,1.2
			c0,0.2,0.3,0.7,0.8,1.5l4.6,6.9l4.8-6.9c0.5-0.7,0.8-1.2,0.8-1.5c0-0.3-0.1-0.5-0.3-0.7c-0.2-0.2-0.5-0.3-0.9-0.4v-0.6h10v0.6
			c-0.6,0.1-1.1,0.3-1.5,0.6c-0.4,0.3-1,1-1.7,2L890.7,946.7z"/>
	</g>
	<g>
		<g>
			<path class="st2" d="M464.2,791.4v27.4c0,12.6-3.6,21.9-10.8,27.8c-7.2,5.9-17.2,8.9-30.1,8.9c-11.4,0-20.7-3.3-27.9-9.8
				c-7.2-6.5-10.8-15.8-10.8-27.8v-67.3c0-14.4,3.2-25.2,9.5-32.3c6.3-7.1,16.3-10.7,29.8-10.7c5.5,0,10.6,0.7,15.3,2
				c4.7,1.4,8.8,3.4,12.4,6.1c3.6,2.7,6.5,6.2,8.5,10.5c2.1,4.3,3.1,9.3,3.1,15v25.6h-31.7V750c0-8.7-2.6-13-7.7-13c-3,0-5,1-6,2.9
				c-1,1.9-1.5,4.6-1.5,8v68.6c0,3,0.7,5.6,2.1,7.7c1.4,2.2,3.2,3.3,5.4,3.3c2.1,0,3.9-0.8,5.4-2.4c1.5-1.6,2.3-4.5,2.3-8.6v-25
				H464.2z"/>
			<path class="st2" d="M505.1,814.8v-69.1c0-12.1,3.3-21.5,9.8-28.1c6.5-6.7,16.4-10.1,29.5-10.2c13.5,0.2,23.5,3.6,30,10.2
				c6.5,6.7,9.8,16,9.8,28.1v69.1c0,5.9-0.7,11.3-2.2,16.1c-1.5,4.8-3.8,9.1-6.8,12.9c-3,3.8-7.2,6.7-12.3,8.7
				c-5.2,2.1-11.2,3-17.9,2.8c-7.1,0.2-13.3-0.8-18.4-2.8c-5.2-2.1-9.3-5-12.3-8.7c-3-3.8-5.3-8.1-6.8-12.9
				C505.9,826,505.1,820.7,505.1,814.8z M544.7,826.9c1.2,0,2.2-0.2,3.1-0.7c0.9-0.5,1.6-1.2,2.1-2.1c0.5-0.9,0.9-1.8,1.2-2.7
				c0.3-0.9,0.5-2,0.6-3.4c0.1-1.4,0.2-2.5,0.2-3.3c0-0.8,0-1.8,0-3.1c0-0.3,0-0.5,0-0.7v-58.3c0-0.4,0-1.1,0-2.2c0-1.1,0-1.9,0-2.5
				c0-0.5-0.1-1.4-0.1-2.4c0-1.1-0.1-1.9-0.3-2.5c-0.2-0.6-0.3-1.3-0.5-2.2c-0.2-0.9-0.5-1.5-0.9-2c-0.4-0.5-0.8-0.9-1.3-1.5
				c-0.5-0.5-1.1-0.9-1.8-1.1c-0.7-0.2-1.5-0.3-2.5-0.3c-1.3,0-2.4,0.2-3.3,0.6c-0.9,0.4-1.7,1.1-2.2,2c-0.5,0.9-1,1.8-1.4,2.6
				c-0.4,0.8-0.6,1.9-0.7,3.4c-0.1,1.5-0.2,2.6-0.2,3.2c0,0.6,0,1.7,0,3.2c0,0.2,0,0.5,0,0.6c0,0.2,0,0.4,0,0.5v58.3
				c0,1.3,0,2.4,0,3.2c0,0.8,0.1,1.9,0.2,3.5c0.1,1.5,0.3,2.7,0.7,3.7c0.3,0.9,0.8,1.9,1.3,3c0.5,1,1.3,1.8,2.2,2.3
				C542.3,826.6,543.4,826.9,544.7,826.9z"/>
			<path class="st2" d="M628,853.9V708.8h64.1v28.3h-31.9v23h30.2v28h-30.2v65.9H628z"/>
			<path class="st2" d="M732.9,853.9V708.8h64.1v28.3h-31.9v23h30.2v28h-30.2v65.9H732.9z"/>
			<path class="st2" d="M837.9,853.9V708.8H902V737h-31.5v28.3h30.2v27.2h-30.2v33.1h33.6v28.3H837.9z"/>
			<path class="st2" d="M946.2,853.9V708.8h64.1V737h-31.5v28.3h30.2v27.2h-30.2v33.1h33.6v28.3H946.2z"/>
		</g>
		<g>
			<rect x="382.3" y="668.9" class="st1" width="632.7" height="5.3"/>
			<rect x="382.3" y="888.7" class="st1" width="632.7" height="5.3"/>
		</g>
	</g>
	<g>
		<g>
			<path class="st1" d="M845.6,480c-10.3-16.7-37.6-10.8-40.7-10.1l-4.2,1l-0.8,4.3c-1.5,7.5-8.2,11.8-14.6,14.3
				c1.5-9.7,3.3-17.1,4.6-21.8c0.8-2.7-1.3-5.4-4.1-5.4H609.8c-2.8,0-4.9,2.7-4.1,5.4c2.3,8.1,6.1,25,6.9,47.6
				c1.1,32.5-1.5,48.9,6,68.3c7.5,19.4,37.7,35.1,37.7,35.1h36c-2-1.8-3.4-3.7-4.5-7.6c-1.7-5.9-16.9-8.9-24.8-9.6
				c-0.7-0.1-1.1-0.1-1.1-0.1c0.4,0,0.7,0.1,1.1,0.1c7.6,0.6,52.1,3.5,67.8-5.8c17.2-10.2,21.7-17.5,23.9-32.9
				c3.5-24.1-2.5-73.2,9.5-94.6h17.2c0,0-6.5,15.2-6.7,36.1c-0.2,20.9,0.8,57.9-4.5,73.7c-5.5,16.6-31.1,33.7-42.8,40.7h11.8
				c0,0,30.2-15.7,37.7-35.1c7.5-19.4,4.9-35.8,6-68.3c0.1-3.9,0.4-7.7,0.7-11.2c9.4-2.5,23.2-8.3,28.2-21.7
				c7.5-1.1,18.9-0.9,22.4,4.8c2.8,4.6,3.5,11.2,1.6,17.5c-2.9,10-11.4,19-24.1,25.2c-26.5,13.1-32.2,31.8-27.7,40.9
				c2.9,5.9,8,7.9,12.4,7.9c1.7,0,3.2-0.3,4.5-0.7c3.5-1.2,5.3-5.1,4.1-8.6c-1.2-3.5-5.1-5.3-8.6-4.1c0,0-0.1,0-0.1,0
				c0-0.1-0.1-0.1-0.1-0.2c-0.8-2.3,2.5-13.6,21.6-23c16.1-7.9,27.1-19.9,31-33.6C851.6,498.3,850.4,488,845.6,480z M629.8,532.1
				c0,0-3-40.7-6.5-49.1c-3.5-8.4-9.1-14.4-9.1-14.4h12.7c0,0,2.6,13.4,3,24.3C630.2,503.7,629.8,532.1,629.8,532.1z M809.6,480.8
				c0,0-3,8.7-9.8,13.3c-6.8,4.7-16.2,7.1-16.2,7.1l0.8-6.4c0,0,8.8,0.6,15.3-3.8c5.5-3.7,8-12.4,8-12.4c17.2-3,24.1,3.5,24.1,3.5
				C823,477.3,809.6,480.8,809.6,480.8z M799.6,572.2c-0.4-2.2,2.3-4.2,2.3-4.2s2.8,2,1.7,5c-0.9,2.4-3.5,4.4-8.9,4.1
				c-4.6-0.2-7.5-4-7.5-4s5.4,2.8,8.1,2.8C798.1,576,800,574.4,799.6,572.2z M848.1,502.4c-1.9,12.7-7.2,19.7-16.5,28.7
				c-5.8,5.7-22,12.6-28.3,18.3c-8.5,7.7-9.8,14.4-8.8,17.7c0,0-1.2,1.2-1,2.6c0,0-3.9-0.3-1.9-10.3c1.2-6.2,7.2-12.6,15.9-17.1
				c24.5-12.6,29.9-18.5,36.2-30.6c4.7-8.9,3.4-20.6,2.1-25.6C845.9,486.1,849.6,491.9,848.1,502.4z"/>
			<path class="st1" d="M818.6,624.3H697.8H577c-2,0-2.5,2.5-0.6,3.1l57.5,17.5l3.9,6.2h59.9h59.9l3.9-6.2l57.5-17.5
				C821.1,626.8,820.6,624.3,818.6,624.3z M757.5,643.1l-3.1,5.8h-59.7c0,0,21.6-0.8,23.5-1.6c3.5-1.5,1.1-2.7,5.4-3.2
				c4.2-0.5,24.8-1.1,24.8-1.1l-95.7,0.5c0,0,42.2-1.9,44.2-3.2c2-1.4-7.2-2.5-6.7-5c0.5-2.5-81.5-7.1-81.5-7.1h196.4L757.5,643.1z"
				/>
			<path class="st2" d="M692.5,455h13.1c0.2-0.9-2.1-5.3-2.1-5.3c4.3,2.2,4.3,5.3,4.3,5.3h11c0,0-0.1-2-2-4.6
				c-1.9-2.6-12.8-6.3-14.3-8.2c-1.5-2,2.2-5.3,2.2-5.3s-8.7,2.8-11.8,4.4c-3.1,1.6-0.3,8.6-0.3,8.6s-3-3.6-2.3-7.6
				c0.7-3.9,14.6-8,20.8-9.7c6.3-1.7,11.5-8.7,11.5-8.7c-3.1,5.9-10.5,9.4-10.5,9.4c1.2,0.2,6.6,1.3,12.8-6.4
				c6.2-7.7,3.6-17.1,3-22.6c-0.7-5.5-9.4-13-13.7-14.7c-4.3-1.7-6.7-4.2-6.7-4.2s-1,1.9,0.3,3.3c1.3,1.4,5,4.5,5,4.5
				s-1.5-0.2-6.2-3.4c-4.7-3.2,6.3-14.4,5-20c-1.3-5.6-10.5-5.6-12.9-7.7c-2.4-2.1,3.3-8.6,3.3-8.6c-4.6,1.3-12.1,11-5.5,12.9
				c6.5,1.9,6.7,7.5,4.7,13.4c-2.1,6-6.3,6.5-2.4,14.9c3.9,8.4,13.3,7.7,13.3,7.7c-3.2-4-7.5-7.7-7.5-7.7s0,0,6.2,3.7
				c6.2,3.7,11,13.2,4.5,23.6c-6.5,10.5-19.7,2.7-27.1,13.4C680.9,446.3,692.5,455,692.5,455z"/>
		</g>
		<g>
			<path class="st1" d="M439.2,564.5h-72.3c-1.4,0-2.5-1.1-2.5-2.5s1.1-2.5,2.5-2.5h72.3c1.4,0,2.5,1.1,2.5,2.5
				S440.6,564.5,439.2,564.5z"/>
			<path class="st1" d="M482.1,564.5h-28.9c-1.4,0-2.5-1.1-2.5-2.5s1.1-2.5,2.5-2.5h28.9c1.4,0,2.5,1.1,2.5,2.5
				S483.5,564.5,482.1,564.5z"/>
			<path class="st1" d="M497.1,564.5h-15c-1.4,0-2.5-1.1-2.5-2.5s1.1-2.5,2.5-2.5h15c1.4,0,2.5,1.1,2.5,2.5S498.5,564.5,497.1,564.5
				z"/>
			<path class="st1" d="M561,564.5h-12.8c-1.4,0-2.5-1.1-2.5-2.5s1.1-2.5,2.5-2.5H561c1.4,0,2.5,1.1,2.5,2.5S562.3,564.5,561,564.5z
				"/>
			<path class="st1" d="M500.4,418c-0.6,0-1.3-0.2-1.7-0.7L485,403.7c-1-1-1-2.5,0-3.5c1-1,2.5-1,3.5,0l13.6,13.6c1,1,1,2.5,0,3.5
				C501.7,417.8,501.1,418,500.4,418z"/>
			<path class="st1" d="M554.2,471.7c-0.6,0-1.3-0.2-1.7-0.7l-39.5-39.5c-1-1-1-2.5,0-3.5c1-1,2.5-1,3.5,0l39.5,39.5
				c1,1,1,2.5,0,3.5C555.4,471.5,554.8,471.7,554.2,471.7z"/>
			<path class="st1" d="M572.2,489.8c-0.6,0-1.3-0.2-1.7-0.7l-11.2-11.2c-1-1-1-2.5,0-3.5c1-1,2.5-1,3.5,0l11.2,11.2
				c1,1,1,2.5,0,3.5C573.5,489.5,572.8,489.8,572.2,489.8z"/>
			<path class="st1" d="M478.5,496.2c-0.3,0-0.6-0.1-0.9-0.2l-58.3-23.7c-1.3-0.5-1.9-2-1.4-3.2c0.5-1.3,2-1.9,3.2-1.4l58.3,23.7
				c1.3,0.5,1.9,2,1.4,3.2C480.4,495.6,479.4,496.2,478.5,496.2z"/>
			<path class="st1" d="M527.6,516.1c-0.3,0-0.6-0.1-0.9-0.2l-33.3-13.5c-1.3-0.5-1.9-2-1.4-3.2c0.5-1.3,2-1.9,3.2-1.4l33.3,13.5
				c1.3,0.5,1.9,2,1.4,3.2C529.5,515.5,528.5,516.1,527.6,516.1z"/>
			<path class="st1" d="M551.8,525.9c-0.3,0-0.6-0.1-0.9-0.2L539,521c-1.3-0.5-1.9-2-1.4-3.2c0.5-1.3,2-1.9,3.2-1.4l11.8,4.8
				c1.3,0.5,1.9,2,1.4,3.2C553.7,525.4,552.8,525.9,551.8,525.9z"/>
			<path class="st1" d="M557.1,352.2c-1,0-1.9-0.6-2.3-1.5l-6-14.1c-0.5-1.3,0.1-2.7,1.3-3.2c1.3-0.5,2.7,0.1,3.2,1.3l6,14.1
				c0.5,1.3-0.1,2.7-1.3,3.2C557.8,352.1,557.5,352.2,557.1,352.2z"/>
			<path class="st1" d="M572.2,387.7c-1,0-1.9-0.6-2.3-1.5l-11.2-26.6c-0.5-1.3,0.1-2.7,1.3-3.2c1.3-0.5,2.7,0.1,3.2,1.3l11.2,26.6
				c0.5,1.3-0.1,2.7-1.3,3.2C572.8,387.7,572.5,387.7,572.2,387.7z"/>
			<path class="st1" d="M591,432.3c-1,0-1.9-0.6-2.3-1.5l-12.1-28.6c-0.5-1.3,0.1-2.7,1.3-3.2c1.3-0.5,2.7,0.1,3.2,1.3l12.1,28.6
				c0.5,1.3-0.1,2.7-1.3,3.2C591.7,432.2,591.3,432.3,591,432.3z"/>
			<path class="st1" d="M453.2,523.5c-0.2,0-0.3,0-0.5-0.1l-61.5-13c-1.3-0.3-2.2-1.6-1.9-2.9c0.3-1.3,1.6-2.2,2.9-1.9l61.5,13
				c1.3,0.3,2.2,1.6,1.9,2.9C455.4,522.7,454.4,523.5,453.2,523.5z"/>
			<path class="st1" d="M537.8,541.4c-0.2,0-0.3,0-0.5-0.1L474.2,528c-1.3-0.3-2.2-1.6-1.9-2.9c0.3-1.3,1.6-2.2,2.9-1.9l63.1,13.4
				c1.3,0.3,2.2,1.6,1.9,2.9C540,540.6,539,541.4,537.8,541.4z"/>
			<path class="st1" d="M564.9,547.2c-0.2,0-0.3,0-0.5-0.1l-15.5-3.3c-1.3-0.3-2.2-1.6-1.9-2.9c0.3-1.3,1.6-2.2,2.9-1.9l15.5,3.3
				c1.3,0.3,2.2,1.6,1.9,2.9C567.1,546.4,566.1,547.2,564.9,547.2z"/>
			<path class="st1" d="M527.6,381.1c-0.8,0-1.6-0.4-2.1-1.1l-3-4.6c-0.7-1.1-0.4-2.7,0.7-3.4c1.1-0.7,2.7-0.4,3.4,0.7l3,4.6
				c0.7,1.1,0.4,2.7-0.7,3.4C528.5,380.9,528,381.1,527.6,381.1z"/>
			<path class="st1" d="M548.1,412.7c-0.8,0-1.6-0.4-2.1-1.1l-8.1-12.5c-0.7-1.1-0.4-2.7,0.7-3.4s2.7-0.4,3.4,0.7l8.1,12.5
				c0.7,1.1,0.4,2.7-0.7,3.4C549,412.5,548.6,412.7,548.1,412.7z"/>
			<path class="st1" d="M578.5,459.3c-0.8,0-1.6-0.4-2.1-1.1l-8.2-12.6c-0.7-1.1-0.4-2.7,0.7-3.4c1.1-0.7,2.7-0.4,3.4,0.7l8.2,12.6
				c0.7,1.1,0.4,2.7-0.7,3.4C579.4,459.1,578.9,459.3,578.5,459.3z"/>
			<path class="st1" d="M478.9,451.1c-0.5,0-1-0.1-1.4-0.4l-47.2-31.9c-1.1-0.8-1.4-2.3-0.7-3.4c0.8-1.1,2.3-1.4,3.4-0.7l47.2,31.9
				c1.1,0.8,1.4,2.3,0.7,3.4C480.5,450.7,479.7,451.1,478.9,451.1z"/>
			<path class="st1" d="M525.6,482.6c-0.5,0-1-0.1-1.4-0.4l-32.4-21.9c-1.1-0.8-1.4-2.3-0.7-3.4c0.8-1.1,2.3-1.4,3.4-0.7l32.4,21.9
				c1.1,0.8,1.4,2.3,0.7,3.4C527.2,482.2,526.4,482.6,525.6,482.6z"/>
			<path class="st1" d="M544,495.1c-0.5,0-1-0.1-1.4-0.4l-10.3-6.9c-1.1-0.8-1.4-2.3-0.7-3.4c0.8-1.1,2.3-1.4,3.4-0.7l10.3,6.9
				c1.1,0.8,1.4,2.3,0.7,3.4C545.6,494.7,544.8,495.1,544,495.1z"/>
			<path class="st1" d="M570.3,512.8c-0.5,0-1-0.1-1.4-0.4l-10.7-7.2c-1.1-0.8-1.4-2.3-0.7-3.4c0.8-1.1,2.3-1.4,3.4-0.7l10.7,7.2
				c1.1,0.8,1.4,2.3,0.7,3.4C571.9,512.4,571.1,512.8,570.3,512.8z"/>
			<path class="st1" d="M615.4,402c-1.2,0-2.2-0.8-2.4-2l-11.5-59.1c-0.3-1.3,0.6-2.6,2-2.9c1.3-0.3,2.6,0.6,2.9,2l11.5,59.1
				c0.3,1.3-0.6,2.6-2,2.9C615.7,402,615.6,402,615.4,402z"/>
			<path class="st1" d="M620,425.7c-1.2,0-2.2-0.8-2.4-2l-2.2-11.4c-0.3-1.3,0.6-2.6,2-2.9c1.3-0.3,2.6,0.6,2.9,2l2.2,11.4
				c0.3,1.3-0.6,2.6-2,2.9C620.3,425.7,620.2,425.7,620,425.7z"/>
		</g>
		<g>
			<path class="st1" d="M1037.3,565.1H965c-1.4,0-2.5-1.1-2.5-2.5s1.1-2.5,2.5-2.5h72.3c1.4,0,2.5,1.1,2.5,2.5
				S1038.6,565.1,1037.3,565.1z"/>
			<path class="st1" d="M951,565.1h-28.9c-1.4,0-2.5-1.1-2.5-2.5s1.1-2.5,2.5-2.5H951c1.4,0,2.5,1.1,2.5,2.5S952.3,565.1,951,565.1z
				"/>
			<path class="st1" d="M922.1,565.1h-15c-1.4,0-2.5-1.1-2.5-2.5s1.1-2.5,2.5-2.5h15c1.4,0,2.5,1.1,2.5,2.5S923.4,565.1,922.1,565.1
				z"/>
			<path class="st1" d="M856.1,565.1h-12.8c-1.4,0-2.5-1.1-2.5-2.5s1.1-2.5,2.5-2.5h12.8c1.4,0,2.5,1.1,2.5,2.5
				S857.4,565.1,856.1,565.1z"/>
			<path class="st1" d="M903.8,418.5c-0.6,0-1.3-0.2-1.7-0.7c-1-1-1-2.5,0-3.5l13.6-13.6c1-1,2.5-1,3.5,0c1,1,1,2.5,0,3.5
				l-13.6,13.6C905,418.3,904.4,418.5,903.8,418.5z"/>
			<path class="st1" d="M850,472.3c-0.6,0-1.3-0.2-1.7-0.7c-1-1-1-2.5,0-3.5l39.5-39.5c1-1,2.5-1,3.5,0c1,1,1,2.5,0,3.5l-39.5,39.5
				C851.3,472,850.7,472.3,850,472.3z"/>
			<path class="st1" d="M925.7,496.7c-1,0-1.9-0.6-2.3-1.5c-0.5-1.3,0.1-2.7,1.4-3.2l58.3-23.7c1.3-0.5,2.7,0.1,3.2,1.4
				c0.5,1.3-0.1,2.7-1.4,3.2l-58.3,23.7C926.3,496.7,926,496.7,925.7,496.7z"/>
			<path class="st1" d="M876.6,516.6c-1,0-1.9-0.6-2.3-1.5c-0.5-1.3,0.1-2.7,1.4-3.2l33.3-13.5c1.3-0.5,2.7,0.1,3.2,1.4
				c0.5,1.3-0.1,2.7-1.4,3.2l-33.3,13.5C877.3,516.6,876.9,516.6,876.6,516.6z"/>
			<path class="st1" d="M852.4,526.5c-1,0-1.9-0.6-2.3-1.5c-0.5-1.3,0.1-2.7,1.4-3.2l11.8-4.8c1.3-0.5,2.7,0.1,3.2,1.4
				c0.5,1.3-0.1,2.7-1.4,3.2l-11.8,4.8C853,526.4,852.7,526.5,852.4,526.5z"/>
			<path class="st1" d="M847,352.7c-0.3,0-0.6-0.1-1-0.2c-1.3-0.5-1.8-2-1.3-3.2l6-14.1c0.5-1.3,2-1.8,3.2-1.3
				c1.3,0.5,1.8,2,1.3,3.2l-6,14.1C848.9,352.1,848,352.7,847,352.7z"/>
			<path class="st1" d="M832,388.3c-0.3,0-0.6-0.1-1-0.2c-1.3-0.5-1.8-2-1.3-3.2l11.2-26.6c0.5-1.3,2-1.8,3.2-1.3
				c1.3,0.5,1.8,2,1.3,3.2l-11.2,26.6C833.9,387.7,833,388.3,832,388.3z"/>
			<path class="st1" d="M813.2,432.8c-0.3,0-0.6-0.1-1-0.2c-1.3-0.5-1.8-2-1.3-3.2l12.1-28.6c0.5-1.3,2-1.8,3.2-1.3
				c1.3,0.5,1.8,2,1.3,3.2l-12.1,28.6C815,432.2,814.1,432.8,813.2,432.8z"/>
			<path class="st1" d="M951,524.1c-1.1,0-2.2-0.8-2.4-2c-0.3-1.3,0.6-2.6,1.9-2.9l61.5-13c1.3-0.3,2.6,0.6,2.9,1.9
				c0.3,1.3-0.6,2.6-1.9,2.9l-61.5,13C951.3,524.1,951.2,524.1,951,524.1z"/>
			<path class="st1" d="M866.4,542c-1.1,0-2.2-0.8-2.4-2c-0.3-1.3,0.6-2.6,1.9-2.9l63.1-13.4c1.3-0.3,2.6,0.6,2.9,1.9
				c0.3,1.3-0.6,2.6-1.9,2.9l-63.1,13.4C866.7,542,866.5,542,866.4,542z"/>
			<path class="st1" d="M839.3,547.7c-1.1,0-2.2-0.8-2.4-2c-0.3-1.3,0.6-2.6,1.9-2.9l15.5-3.3c1.3-0.3,2.6,0.6,2.9,1.9
				c0.3,1.3-0.6,2.6-1.9,2.9l-15.5,3.3C839.6,547.7,839.4,547.7,839.3,547.7z"/>
			<path class="st1" d="M876.6,381.6c-0.5,0-0.9-0.1-1.3-0.4c-1.1-0.7-1.5-2.3-0.7-3.4l3-4.6c0.7-1.1,2.3-1.5,3.4-0.7
				c1.1,0.7,1.5,2.3,0.7,3.4l-3,4.6C878.2,381.2,877.4,381.6,876.6,381.6z"/>
			<path class="st1" d="M856.1,413.2c-0.5,0-0.9-0.1-1.3-0.4c-1.1-0.7-1.5-2.3-0.7-3.4l8.1-12.5c0.7-1.1,2.3-1.5,3.4-0.7
				c1.1,0.7,1.5,2.3,0.7,3.4l-8.1,12.5C857.7,412.8,856.9,413.2,856.1,413.2z"/>
			<path class="st1" d="M825.7,459.8c-0.5,0-0.9-0.1-1.3-0.4c-1.1-0.7-1.5-2.3-0.7-3.4l8.2-12.6c0.7-1.1,2.3-1.5,3.4-0.7
				c1.1,0.7,1.5,2.3,0.7,3.4l-8.2,12.6C827.3,459.4,826.5,459.8,825.7,459.8z"/>
			<path class="st1" d="M925.3,451.6c-0.8,0-1.6-0.4-2-1.1c-0.8-1.1-0.5-2.7,0.7-3.4l47.2-31.9c1.1-0.8,2.7-0.5,3.4,0.7
				c0.8,1.1,0.5,2.7-0.7,3.4l-47.2,31.9C926.2,451.5,925.7,451.6,925.3,451.6z"/>
			<path class="st1" d="M878.6,483.1c-0.8,0-1.6-0.4-2-1.1c-0.8-1.1-0.5-2.7,0.7-3.4l32.4-21.9c1.1-0.8,2.7-0.5,3.4,0.7
				c0.8,1.1,0.5,2.7-0.7,3.4L880,482.7C879.5,483,879.1,483.1,878.6,483.1z"/>
			<path class="st1" d="M860.1,495.6c-0.8,0-1.6-0.4-2-1.1c-0.8-1.1-0.5-2.7,0.7-3.4l10.3-6.9c1.1-0.8,2.7-0.5,3.4,0.7
				c0.8,1.1,0.5,2.7-0.7,3.4l-10.3,6.9C861.1,495.4,860.6,495.6,860.1,495.6z"/>
			<path class="st1" d="M788.8,402.5c-0.2,0-0.3,0-0.5,0c-1.3-0.3-2.2-1.6-2-2.9l11.5-59.1c0.3-1.3,1.6-2.2,2.9-2
				c1.3,0.3,2.2,1.6,2,2.9l-11.5,59.1C791,401.7,789.9,402.5,788.8,402.5z"/>
			<path class="st1" d="M784.2,426.2c-0.2,0-0.3,0-0.5,0c-1.3-0.3-2.2-1.6-2-2.9l2.2-11.4c0.3-1.3,1.6-2.2,2.9-2
				c1.3,0.3,2.2,1.6,2,2.9l-2.2,11.4C786.4,425.4,785.3,426.2,784.2,426.2z"/>
		</g>
		<path class="st1" d="M640.7,420.5c-1.3,0-2.3-1-2.5-2.3l-6.6-77.7c-0.1-1.4,0.9-2.6,2.3-2.7c1.4-0.1,2.6,0.9,2.7,2.3l6.6,77.7
			c0.1,1.4-0.9,2.6-2.3,2.7C640.8,420.5,640.8,420.5,640.7,420.5z"/>
		<path class="st1" d="M764.2,420.5c-0.1,0-0.2,0-0.4,0c-1.3-0.2-2.3-1.5-2.1-2.8l6.2-41.7c0.2-1.3,1.5-2.3,2.8-2.1
			c1.3,0.2,2.3,1.5,2.1,2.8l-6.2,41.7C766.5,419.6,765.4,420.5,764.2,420.5z"/>
		<path class="st1" d="M773,361.7c-0.1,0-0.2,0-0.4,0c-1.3-0.2-2.3-1.5-2.1-2.8l2.7-18.3c0.2-1.3,1.5-2.3,2.8-2.1
			c1.3,0.2,2.3,1.5,2.1,2.8l-2.7,18.3C775.3,360.8,774.2,361.7,773,361.7z"/>
	</g>
	<path class="st1" d="M700,233c-257.9,0-467,209.1-467,467s209.1,467,467,467s467-209.1,467-467S957.9,233,700,233z M1108.6,746
		L1108.6,746c-20.8,17.4-26.7,46.9-14.4,71l0,0c16.4,32,0,71.1-34.3,81.9h0c-25.8,8.1-42.6,33.1-40.5,60.1v0
		c2.9,35.9-27.2,65.7-63,62.5h0c-27-2.4-52,14.2-60.4,40c-11.1,34.2-50.2,50.3-82.1,33.7h0c-24-12.5-53.5-6.8-71.1,13.9h0
		c-23.3,27.4-65.7,27.2-88.8-0.3h0c-17.4-20.8-46.9-26.7-71-14.4l0,0c-32,16.4-71.1,0-81.9-34.3h0c-8.1-25.9-33.1-42.6-60.1-40.5
		l0,0c-35.9,2.9-65.7-27.2-62.5-63l0,0c2.4-27-14.2-52-40-60.4l0,0c-34.2-11.1-50.3-50.2-33.7-82.1l0,0c12.5-24,6.8-53.5-13.9-71.1
		l0,0c-27.4-23.3-27.2-65.7,0.3-88.8l0,0c20.8-17.4,26.7-46.9,14.4-71h0c-16.4-32,0-71.1,34.3-81.9h0c25.8-8.1,42.6-33.1,40.5-60.1
		l0,0c-2.9-35.9,27.2-65.7,63-62.5v0c27,2.4,52-14.2,60.4-40l0,0c11.1-34.2,50.2-50.3,82.1-33.7l0,0c24,12.5,53.5,6.8,71.1-13.9l0,0
		c23.3-27.4,65.7-27.2,88.8,0.3l0,0c17.4,20.8,46.9,26.7,71,14.4l0,0c32-16.4,71.1,0,81.9,34.3l0,0c8.1,25.9,33.1,42.6,60.1,40.5h0
		c35.9-2.9,65.7,27.2,62.5,63v0c-2.4,27,14.2,52,40,60.4l0,0c34.2,11.1,50.3,50.2,33.7,82.1v0c-12.5,24-6.8,53.5,13.9,71.1v0
		C1136.3,680.5,1136.2,722.9,1108.6,746z"/>
	<path class="st0" d="M703.9,1153.4c-2.6,0-4.7-2.1-4.7-4.6c0-2.6,2.1-4.7,4.6-4.7c3.7,0,7.4-0.1,11.1-0.2c2.6-0.1,4.7,1.9,4.8,4.5
		c0.1,2.6-1.9,4.7-4.5,4.8C711.5,1153.3,707.7,1153.4,703.9,1153.4C704,1153.4,704,1153.4,703.9,1153.4z M685.2,1153.2
		c-0.1,0-0.1,0-0.2,0c-3.8-0.1-7.6-0.3-11.4-0.5c-2.6-0.1-4.6-2.4-4.4-4.9c0.1-2.6,2.3-4.5,4.9-4.4c3.7,0.2,7.4,0.4,11.1,0.5
		c2.6,0.1,4.6,2.2,4.5,4.8C689.8,1151.2,687.7,1153.2,685.2,1153.2z M733.9,1152.2c-2.4,0-4.5-1.9-4.7-4.3c-0.2-2.6,1.7-4.8,4.3-5
		c3.7-0.3,7.4-0.6,11.1-1c2.6-0.3,4.9,1.6,5.1,4.2c0.3,2.6-1.6,4.9-4.2,5.1c-3.8,0.4-7.6,0.7-11.3,1
		C734.1,1152.2,734,1152.2,733.9,1152.2z M655.3,1151.2c-0.2,0-0.3,0-0.5,0c-3.7-0.4-7.5-0.8-11.3-1.3c-2.6-0.3-4.4-2.7-4.1-5.2
		c0.3-2.6,2.7-4.4,5.2-4.1c3.7,0.5,7.4,0.9,11.1,1.2c2.6,0.3,4.4,2.5,4.2,5.1C659.7,1149.4,657.7,1151.2,655.3,1151.2z
		 M763.7,1148.9c-2.3,0-4.3-1.7-4.6-4c-0.4-2.6,1.4-4.9,4-5.3c3.7-0.5,7.4-1.1,11-1.7c2.6-0.4,5,1.3,5.4,3.8c0.4,2.5-1.3,5-3.8,5.4
		c-3.7,0.6-7.5,1.2-11.2,1.7C764.1,1148.9,763.9,1148.9,763.7,1148.9z M625.6,1147.3c-0.3,0-0.5,0-0.8-0.1c-3.7-0.6-7.5-1.3-11.2-2
		c-2.5-0.5-4.2-2.9-3.7-5.5s2.9-4.2,5.5-3.7c3.6,0.7,7.3,1.4,11,2c2.5,0.4,4.3,2.8,3.8,5.4C629.8,1145.7,627.8,1147.3,625.6,1147.3z
		 M793.2,1143.7c-2.2,0-4.1-1.5-4.6-3.7c-0.5-2.5,1.1-5,3.6-5.5c3.6-0.8,7.2-1.6,10.9-2.4c2.5-0.6,5,1,5.6,3.5c0.6,2.5-1,5-3.5,5.6
		c-3.7,0.9-7.4,1.7-11.1,2.5C793.9,1143.7,793.5,1143.7,793.2,1143.7z M596.2,1141.4c-0.4,0-0.7,0-1.1-0.1c-3.7-0.9-7.4-1.8-11-2.8
		c-2.5-0.7-4-3.2-3.3-5.7c0.7-2.5,3.2-4,5.7-3.3c3.6,0.9,7.2,1.8,10.8,2.7c2.5,0.6,4.1,3.1,3.5,5.6
		C600.2,1139.9,598.3,1141.4,596.2,1141.4z M822.3,1136.6c-2,0-3.9-1.3-4.5-3.4c-0.7-2.5,0.7-5.1,3.2-5.8c3.5-1,7.1-2.1,10.7-3.2
		c2.5-0.8,5.1,0.6,5.9,3.1c0.8,2.5-0.6,5.1-3.1,5.9c-3.6,1.1-7.3,2.2-10.9,3.2C823.2,1136.5,822.8,1136.6,822.3,1136.6z
		 M567.2,1133.5c-0.5,0-0.9-0.1-1.4-0.2c-3.6-1.1-7.3-2.3-10.9-3.5c-2.4-0.8-3.8-3.5-2.9-5.9c0.8-2.4,3.5-3.8,5.9-2.9
		c3.5,1.2,7.1,2.3,10.6,3.4c2.5,0.8,3.9,3.4,3.1,5.9C571.1,1132.2,569.2,1133.5,567.2,1133.5z M850.9,1127.4c-1.9,0-3.7-1.2-4.4-3.1
		c-0.9-2.4,0.4-5.1,2.8-6c3.5-1.2,7-2.5,10.4-3.9c2.4-0.9,5.1,0.3,6,2.7c0.9,2.4-0.3,5.1-2.7,6c-3.5,1.4-7.1,2.7-10.7,4
		C852,1127.3,851.4,1127.4,850.9,1127.4z M538.8,1123.6c-0.6,0-1.1-0.1-1.7-0.3c-3.5-1.4-7.1-2.8-10.6-4.2c-2.4-1-3.5-3.7-2.5-6.1
		c1-2.4,3.7-3.5,6.1-2.5c3.4,1.4,6.9,2.8,10.4,4.1c2.4,0.9,3.6,3.6,2.7,6C542.5,1122.5,540.7,1123.6,538.8,1123.6z M878.7,1116.4
		c-1.8,0-3.5-1.1-4.3-2.8c-1-2.4,0.1-5.1,2.4-6.2c3.4-1.5,6.8-3,10.1-4.5c2.3-1.1,5.1-0.1,6.2,2.3c1.1,2.3,0.1,5.1-2.3,6.2
		c-3.4,1.6-6.9,3.2-10.3,4.6C880,1116.3,879.4,1116.4,878.7,1116.4z M511.1,1111.9c-0.7,0-1.3-0.1-2-0.4c-3.4-1.6-6.9-3.3-10.3-4.9
		c-2.3-1.1-3.3-4-2.1-6.3c1.1-2.3,4-3.3,6.3-2.1c3.3,1.6,6.7,3.3,10.1,4.8c2.3,1.1,3.4,3.9,2.3,6.2
		C514.6,1110.9,512.9,1111.9,511.1,1111.9z M905.8,1103.6c-1.7,0-3.3-0.9-4.2-2.5c-1.2-2.3-0.3-5.1,2-6.3c3.3-1.7,6.6-3.4,9.8-5.2
		c2.3-1.2,5.1-0.4,6.4,1.8c1.2,2.3,0.4,5.1-1.8,6.4c-3.3,1.8-6.7,3.6-10,5.3C907.2,1103.4,906.5,1103.6,905.8,1103.6z M484.3,1098.3
		c-0.8,0-1.5-0.2-2.2-0.6c-3.3-1.8-6.6-3.7-9.9-5.6c-2.2-1.3-3-4.2-1.7-6.4c1.3-2.2,4.2-3,6.4-1.7c3.2,1.9,6.5,3.7,9.7,5.5
		c2.3,1.2,3.1,4.1,1.8,6.4C487.6,1097.4,486,1098.3,484.3,1098.3z M931.9,1089c-1.6,0-3.1-0.8-4-2.3c-1.3-2.2-0.6-5.1,1.6-6.4
		c3.2-1.9,6.3-3.9,9.4-5.9c2.2-1.4,5.1-0.8,6.5,1.4c1.4,2.2,0.8,5.1-1.4,6.5c-3.2,2-6.4,4-9.6,6C933.5,1088.7,932.7,1089,931.9,1089
		z M458.5,1083c-0.9,0-1.7-0.2-2.5-0.7c-3.2-2-6.4-4.1-9.5-6.2c-2.1-1.4-2.7-4.4-1.3-6.5c1.4-2.1,4.4-2.7,6.5-1.3
		c3.1,2.1,6.2,4.1,9.3,6.1c2.2,1.4,2.8,4.3,1.4,6.5C461.6,1082.2,460.1,1083,458.5,1083z M957,1072.6c-1.5,0-2.9-0.7-3.8-2
		c-1.5-2.1-1-5,1.2-6.5c3-2.1,6.1-4.3,9-6.5c2.1-1.5,5-1.1,6.5,1c1.5,2.1,1.1,5-1,6.5c-3,2.2-6.1,4.5-9.2,6.6
		C958.8,1072.4,957.9,1072.6,957,1072.6z M433.8,1066c-1,0-1.9-0.3-2.8-0.9c-3-2.2-6.1-4.5-9.1-6.9c-2-1.6-2.4-4.5-0.8-6.6
		c1.6-2,4.5-2.4,6.6-0.8c2.9,2.3,5.9,4.5,8.9,6.7c2.1,1.5,2.5,4.5,1,6.5C436.6,1065.3,435.2,1066,433.8,1066z M980.9,1054.6
		c-1.4,0-2.7-0.6-3.6-1.7c-1.6-2-1.3-5,0.7-6.6c2.9-2.3,5.8-4.7,8.6-7.1c2-1.7,4.9-1.4,6.6,0.6c1.7,2,1.4,4.9-0.6,6.6
		c-2.9,2.4-5.8,4.8-8.8,7.2C983,1054.3,981.9,1054.6,980.9,1054.6z M410.3,1047.4c-1.1,0-2.1-0.4-3-1.1c-2.9-2.4-5.8-4.9-8.6-7.5
		c-1.9-1.7-2.1-4.7-0.4-6.6c1.7-1.9,4.7-2.1,6.6-0.4c2.8,2.5,5.6,4.9,8.4,7.3c2,1.7,2.2,4.6,0.5,6.6
		C412.9,1046.8,411.6,1047.4,410.3,1047.4z M1003.6,1035.1c-1.3,0-2.5-0.5-3.4-1.5c-1.7-1.9-1.6-4.9,0.3-6.6
		c2.7-2.5,5.4-5.1,8.1-7.6c1.9-1.8,4.8-1.7,6.6,0.1c1.8,1.9,1.7,4.8-0.1,6.6c-2.7,2.6-5.5,5.2-8.3,7.8
		C1005.9,1034.7,1004.8,1035.1,1003.6,1035.1z M388,1027.2c-1.2,0-2.3-0.4-3.3-1.3c-2.7-2.6-5.4-5.3-8.1-8c-1.8-1.8-1.8-4.8,0.1-6.6
		c1.8-1.8,4.8-1.8,6.6,0.1c2.6,2.6,5.2,5.3,7.9,7.8c1.9,1.8,1.9,4.8,0.1,6.6C390.5,1026.8,389.2,1027.2,388,1027.2z M1025,1014.1
		c-1.2,0-2.3-0.4-3.2-1.3c-1.9-1.8-1.9-4.7-0.2-6.6c2.5-2.7,5.1-5.4,7.6-8.2c1.7-1.9,4.7-2.1,6.6-0.3c1.9,1.7,2.1,4.7,0.3,6.6
		c-2.5,2.8-5.1,5.6-7.7,8.3C1027.5,1013.6,1026.3,1014.1,1025,1014.1z M367.2,1005.7c-1.3,0-2.5-0.5-3.5-1.5
		c-2.5-2.8-5.1-5.7-7.5-8.5c-1.7-2-1.5-4.9,0.5-6.6c2-1.7,4.9-1.5,6.6,0.5c2.4,2.8,4.9,5.6,7.4,8.3c1.7,1.9,1.6,4.9-0.3,6.6
		C369.4,1005.3,368.3,1005.7,367.2,1005.7z M1045,991.7c-1.1,0-2.1-0.4-3-1.1c-2-1.7-2.3-4.6-0.6-6.6c2.4-2.8,4.7-5.8,7-8.6
		c1.6-2,4.5-2.4,6.6-0.8c2,1.6,2.4,4.5,0.8,6.6c-2.3,3-4.7,5.9-7.2,8.8C1047.6,991.1,1046.3,991.7,1045,991.7z M347.8,982.8
		c-1.4,0-2.8-0.6-3.7-1.8c-2.3-2.9-4.7-6-6.9-9c-1.6-2.1-1.1-5,0.9-6.6c2.1-1.6,5-1.1,6.6,0.9c2.2,3,4.5,5.9,6.8,8.8
		c1.6,2,1.3,5-0.8,6.6C349.9,982.5,348.8,982.8,347.8,982.8z M1063.4,968c-1,0-1.9-0.3-2.7-0.9c-2.1-1.5-2.6-4.4-1-6.5
		c2.2-3,4.3-6.1,6.4-9.1c1.5-2.1,4.4-2.7,6.5-1.2c2.1,1.5,2.7,4.4,1.2,6.5c-2.1,3.1-4.3,6.2-6.6,9.3
		C1066.3,967.3,1064.8,968,1063.4,968z M330,958.7c-1.5,0-3-0.7-3.9-2c-2.1-3.1-4.3-6.3-6.3-9.4c-1.4-2.2-0.8-5.1,1.4-6.5
		c2.2-1.4,5.1-0.8,6.5,1.4c2,3.1,4.1,6.2,6.2,9.2c1.5,2.1,0.9,5-1.2,6.5C331.9,958.4,330.9,958.7,330,958.7z M1080.2,943.2
		c-0.9,0-1.7-0.2-2.5-0.7c-2.2-1.4-2.8-4.3-1.5-6.5c2-3.1,3.9-6.3,5.8-9.5c1.3-2.2,4.2-3,6.4-1.6c2.2,1.3,3,4.2,1.6,6.4
		c-1.9,3.2-3.9,6.5-5.9,9.7C1083.3,942.4,1081.8,943.2,1080.2,943.2z M313.9,933.5c-1.6,0-3.2-0.8-4-2.3c-1.9-3.2-3.8-6.5-5.7-9.8
		c-1.3-2.3-0.5-5.1,1.8-6.4c2.3-1.3,5.1-0.5,6.4,1.8c1.8,3.2,3.7,6.4,5.6,9.6c1.3,2.2,0.6,5.1-1.6,6.4
		C315.5,933.3,314.7,933.5,313.9,933.5z M1095.3,917.2c-0.7,0-1.5-0.2-2.2-0.6c-2.3-1.2-3.1-4.1-1.9-6.3c1.8-3.3,3.5-6.6,5.2-9.9
		c1.2-2.3,4-3.2,6.3-2.1c2.3,1.2,3.2,4,2.1,6.3c-1.7,3.4-3.5,6.8-5.3,10.1C1098.6,916.3,1097,917.2,1095.3,917.2z M299.5,907.3
		c-1.7,0-3.4-0.9-4.2-2.6c-1.7-3.3-3.4-6.8-5-10.2c-1.1-2.3-0.1-5.1,2.2-6.2c2.3-1.1,5.1-0.1,6.2,2.2c1.6,3.3,3.2,6.7,4.9,10
		c1.2,2.3,0.2,5.1-2.1,6.3C300.9,907.1,300.2,907.3,299.5,907.3z M1108.7,890.3c-0.6,0-1.3-0.1-1.9-0.4c-2.4-1.1-3.4-3.8-2.3-6.2
		c1.5-3.4,3-6.8,4.5-10.2c1-2.4,3.8-3.5,6.1-2.5c2.4,1,3.5,3.8,2.5,6.1c-1.5,3.5-3,7-4.6,10.4
		C1112.2,889.3,1110.5,890.3,1108.7,890.3z M286.9,880.2c-1.8,0-3.6-1.1-4.3-2.8c-1.5-3.5-2.9-7-4.3-10.5c-1-2.4,0.2-5.1,2.6-6.1
		c2.4-0.9,5.1,0.2,6.1,2.6c1.4,3.4,2.8,6.9,4.2,10.3c1,2.4-0.1,5.1-2.5,6.1C288.1,880,287.5,880.2,286.9,880.2z M1120.2,862.5
		c-0.5,0-1.1-0.1-1.6-0.3c-2.4-0.9-3.6-3.6-2.7-6c1.3-3.5,2.6-7,3.8-10.5c0.8-2.4,3.5-3.7,6-2.9c2.4,0.8,3.7,3.5,2.9,6
		c-1.2,3.6-2.6,7.2-3.9,10.7C1123.9,861.4,1122.1,862.5,1120.2,862.5z M276.1,852.2c-1.9,0-3.7-1.2-4.4-3.1
		c-1.2-3.6-2.5-7.2-3.6-10.8c-0.8-2.5,0.6-5.1,3-5.9c2.5-0.8,5.1,0.6,5.9,3c1.1,3.5,2.3,7.1,3.5,10.6c0.8,2.4-0.4,5.1-2.9,6
		C277.1,852.1,276.6,852.2,276.1,852.2z M1129.8,834c-0.4,0-0.9-0.1-1.3-0.2c-2.5-0.7-3.9-3.4-3.1-5.8c1.1-3.5,2.1-7.1,3.1-10.7
		c0.7-2.5,3.3-4,5.7-3.3c2.5,0.7,4,3.3,3.3,5.7c-1,3.6-2,7.3-3.1,10.9C1133.7,832.7,1131.8,834,1129.8,834z M267.2,823.6
		c-2.1,0-3.9-1.4-4.5-3.4c-1-3.6-2-7.3-2.9-11c-0.6-2.5,0.9-5,3.4-5.7c2.5-0.6,5,0.9,5.7,3.4c0.9,3.6,1.8,7.2,2.8,10.8
		c0.7,2.5-0.8,5.1-3.3,5.7C268,823.5,267.6,823.6,267.2,823.6z M1137.5,805c-0.3,0-0.7,0-1-0.1c-2.5-0.6-4.1-3.1-3.5-5.6
		c0.8-3.6,1.6-7.2,2.3-10.9c0.5-2.5,3-4.2,5.5-3.7c2.5,0.5,4.2,3,3.7,5.5c-0.7,3.7-1.6,7.4-2.4,11.1
		C1141.5,803.6,1139.6,805,1137.5,805z M260.2,794.4c-2.2,0-4.1-1.5-4.6-3.7c-0.8-3.7-1.5-7.5-2.1-11.2c-0.5-2.5,1.2-5,3.8-5.4
		c2.5-0.5,5,1.2,5.4,3.8c0.6,3.6,1.3,7.3,2.1,10.9c0.5,2.5-1.1,5-3.7,5.5C260.8,794.4,260.5,794.4,260.2,794.4z M1143.2,775.6
		c-0.2,0-0.5,0-0.7-0.1c-2.6-0.4-4.3-2.8-3.9-5.4c0.6-3.7,1.1-7.4,1.6-11c0.3-2.6,2.7-4.4,5.3-4c2.6,0.3,4.4,2.7,4,5.3
		c-0.5,3.7-1,7.5-1.6,11.2C1147.4,774,1145.4,775.6,1143.2,775.6z M255.2,764.9c-2.3,0-4.3-1.7-4.6-4.1c-0.5-3.7-1-7.5-1.4-11.3
		c-0.3-2.6,1.6-4.9,4.1-5.2c2.6-0.3,4.9,1.6,5.2,4.1c0.4,3.7,0.8,7.4,1.3,11c0.3,2.6-1.5,4.9-4,5.3
		C255.7,764.8,255.4,764.9,255.2,764.9z M1146.9,745.9c-0.1,0-0.3,0-0.4,0c-2.6-0.2-4.5-2.5-4.2-5.1c0.3-3.7,0.6-7.4,0.9-11.1
		c0.2-2.6,2.4-4.5,5-4.4c2.6,0.2,4.5,2.4,4.4,5c-0.2,3.8-0.5,7.6-0.9,11.3C1151.3,744,1149.3,745.9,1146.9,745.9z M252.3,735
		c-2.4,0-4.5-1.9-4.7-4.4c-0.3-3.8-0.5-7.6-0.6-11.3c-0.1-2.6,1.9-4.8,4.5-4.9c2.6-0.1,4.8,1.9,4.9,4.5c0.2,3.7,0.4,7.4,0.6,11.1
		c0.2,2.6-1.8,4.8-4.4,5C252.5,735,252.4,735,252.3,735z M1148.6,715.9c0,0-0.1,0-0.1,0c-2.6-0.1-4.6-2.2-4.6-4.8
		c0.1-3.7,0.1-7.5,0.1-11.1l0-0.8c0-2.6,2.1-4.7,4.7-4.7c2.6,0,4.7,2.1,4.7,4.7l0,0.8c0,3.8,0,7.6-0.1,11.4
		C1153.2,713.9,1151.1,715.9,1148.6,715.9z M251.2,705c-2.6,0-4.7-2.1-4.7-4.7l0-0.4c0-3.6,0-7.3,0.1-11c0.1-2.6,2.2-4.6,4.8-4.6
		c2.6,0.1,4.6,2.2,4.6,4.8c-0.1,3.6-0.1,7.2-0.1,10.8l0,0.4C255.9,703,253.8,705,251.2,705z M1148.3,685.2c-2.5,0-4.6-2-4.7-4.5
		c-0.2-3.7-0.4-7.4-0.6-11.1c-0.2-2.6,1.8-4.8,4.4-5c2.6-0.2,4.8,1.8,5,4.4c0.3,3.8,0.5,7.6,0.6,11.3c0.1,2.6-1.9,4.8-4.5,4.9
		C1148.5,685.2,1148.4,685.2,1148.3,685.2z M252.2,675.1c-0.1,0-0.2,0-0.3,0c-2.6-0.2-4.5-2.4-4.4-5c0.2-3.8,0.5-7.6,0.9-11.3
		c0.2-2.6,2.5-4.5,5.1-4.2c2.6,0.2,4.5,2.5,4.2,5.1c-0.3,3.7-0.6,7.4-0.9,11.1C256.7,673.2,254.7,675.1,252.2,675.1z M1146.1,655.3
		c-2.4,0-4.4-1.8-4.6-4.2c-0.4-3.7-0.9-7.4-1.3-11c-0.3-2.6,1.5-4.9,4-5.3c2.6-0.3,4.9,1.5,5.3,4c0.5,3.8,1,7.5,1.4,11.3
		c0.3,2.6-1.6,4.9-4.1,5.2C1146.4,655.2,1146.2,655.3,1146.1,655.3z M255.2,645.2c-0.2,0-0.4,0-0.6,0c-2.6-0.3-4.4-2.7-4-5.3
		c0.5-3.7,1-7.5,1.6-11.2c0.4-2.6,2.8-4.3,5.4-3.9c2.6,0.4,4.3,2.8,3.9,5.4c-0.6,3.7-1.1,7.4-1.6,11
		C259.5,643.5,257.5,645.2,255.2,645.2z M1141.8,625.6c-2.2,0-4.2-1.6-4.6-3.9c-0.6-3.6-1.3-7.3-2.1-10.9c-0.5-2.5,1.1-5,3.7-5.5
		c2.5-0.5,5,1.1,5.5,3.6c0.8,3.7,1.5,7.5,2.1,11.2c0.5,2.5-1.2,5-3.8,5.4C1142.3,625.6,1142.1,625.6,1141.8,625.6z M260.1,615.7
		c-0.3,0-0.6,0-0.9-0.1c-2.5-0.5-4.2-3-3.7-5.5c0.7-3.7,1.5-7.4,2.4-11.1c0.6-2.5,3.1-4.1,5.6-3.5c2.5,0.6,4.1,3.1,3.5,5.6
		c-0.8,3.6-1.6,7.3-2.3,10.9C264.2,614.1,262.3,615.7,260.1,615.7z M1135.6,596.3c-2.1,0-4-1.4-4.5-3.6c-0.9-3.6-1.8-7.2-2.8-10.8
		c-0.7-2.5,0.8-5.1,3.3-5.8c2.5-0.7,5.1,0.8,5.8,3.3c1,3.6,2,7.3,2.9,11c0.6,2.5-0.9,5-3.4,5.7
		C1136.3,596.2,1135.9,596.3,1135.6,596.3z M267,586.5c-0.4,0-0.8-0.1-1.2-0.2c-2.5-0.7-4-3.3-3.3-5.7c1-3.6,2-7.3,3.1-10.9
		c0.7-2.5,3.3-3.9,5.8-3.1c2.5,0.7,3.9,3.4,3.1,5.8c-1.1,3.5-2.1,7.1-3.1,10.7C270.9,585.1,269,586.5,267,586.5z M1127.4,567.4
		c-2,0-3.8-1.3-4.5-3.3c-1.1-3.5-2.3-7.1-3.5-10.6c-0.9-2.4,0.4-5.1,2.9-6c2.4-0.9,5.1,0.4,6,2.9c1.2,3.6,2.5,7.2,3.6,10.8
		c0.8,2.5-0.6,5.1-3,5.9C1128.3,567.3,1127.8,567.4,1127.4,567.4z M275.8,557.8c-0.5,0-1-0.1-1.5-0.3c-2.4-0.8-3.7-3.5-2.9-6
		c1.2-3.6,2.5-7.2,3.9-10.7c0.9-2.4,3.6-3.6,6-2.7c2.4,0.9,3.6,3.6,2.7,6c-1.3,3.5-2.6,7-3.8,10.5
		C279.6,556.6,277.8,557.8,275.8,557.8z M1117.2,539.2c-1.9,0-3.6-1.1-4.4-3c-1.4-3.4-2.8-6.9-4.2-10.3c-1-2.4,0.1-5.1,2.5-6.1
		c2.4-1,5.1,0.1,6.1,2.5c1.5,3.5,2.9,7,4.3,10.5c1,2.4-0.2,5.1-2.6,6.1C1118.4,539.1,1117.8,539.2,1117.2,539.2z M286.6,529.8
		c-0.6,0-1.2-0.1-1.8-0.4c-2.4-1-3.5-3.8-2.5-6.1c1.5-3.5,3-7,4.6-10.4c1.1-2.4,3.8-3.4,6.2-2.3c2.4,1.1,3.4,3.8,2.3,6.2
		c-1.5,3.4-3,6.8-4.5,10.2C290.2,528.7,288.4,529.8,286.6,529.8z M1105.3,511.8c-1.7,0-3.4-1-4.2-2.7c-1.6-3.3-3.2-6.7-4.9-10
		c-1.2-2.3-0.3-5.1,2.1-6.3c2.3-1.2,5.1-0.3,6.3,2.1c1.7,3.4,3.4,6.8,5,10.2c1.1,2.3,0.1,5.1-2.2,6.2
		C1106.7,511.6,1106,511.8,1105.3,511.8z M299.3,502.5c-0.7,0-1.4-0.2-2.1-0.5c-2.3-1.2-3.2-4-2.1-6.3c1.7-3.4,3.5-6.8,5.3-10.1
		c1.2-2.3,4.1-3.1,6.3-1.9c2.3,1.2,3.1,4.1,1.9,6.3c-1.7,3.3-3.5,6.6-5.2,9.9C302.6,501.6,301,502.5,299.3,502.5z M1091.5,485.2
		c-1.6,0-3.2-0.9-4.1-2.4c-1.8-3.2-3.7-6.5-5.6-9.6c-1.3-2.2-0.6-5.1,1.6-6.4c2.2-1.3,5.1-0.6,6.4,1.6c1.9,3.2,3.8,6.5,5.7,9.8
		c1.3,2.3,0.5,5.1-1.8,6.4C1093.1,485,1092.3,485.2,1091.5,485.2z M313.7,476.2c-0.8,0-1.6-0.2-2.4-0.7c-2.2-1.3-3-4.2-1.6-6.4
		c1.9-3.3,3.9-6.5,5.9-9.7c1.4-2.2,4.3-2.9,6.5-1.5s2.9,4.3,1.5,6.5c-2,3.1-3.9,6.3-5.8,9.5C316.9,475.4,315.3,476.2,313.7,476.2z
		 M1076,459.6c-1.5,0-3-0.7-3.9-2.1c-2-3.1-4.1-6.2-6.2-9.2c-1.5-2.1-0.9-5,1.2-6.5c2.1-1.5,5-0.9,6.5,1.2c2.1,3.1,4.3,6.3,6.3,9.4
		c1.4,2.2,0.8,5.1-1.4,6.5C1077.8,459.4,1076.9,459.6,1076,459.6z M329.9,450.9c-0.9,0-1.8-0.3-2.6-0.8c-2.1-1.5-2.7-4.4-1.2-6.5
		c2.1-3.1,4.3-6.2,6.6-9.3c1.5-2.1,4.4-2.6,6.5-1c2.1,1.5,2.6,4.4,1,6.5c-2.2,3-4.3,6.1-6.4,9.1
		C332.8,450.2,331.3,450.9,329.9,450.9z M1058.8,435.1c-1.4,0-2.8-0.6-3.7-1.9c-2.2-2.9-4.5-5.9-6.8-8.8c-1.6-2-1.3-5,0.8-6.6
		c2-1.6,5-1.3,6.6,0.8c2.3,3,4.7,6,6.9,9c1.6,2.1,1.1,5-0.9,6.6C1060.8,434.8,1059.8,435.1,1058.8,435.1z M347.7,426.7
		c-1,0-2-0.3-2.9-1c-2-1.6-2.4-4.5-0.8-6.6c2.3-3,4.7-5.9,7.2-8.8c1.7-2,4.6-2.3,6.6-0.6c2,1.7,2.3,4.6,0.6,6.6
		c-2.4,2.8-4.7,5.8-7,8.7C350.4,426.1,349,426.7,347.7,426.7z M1040,411.8c-1.3,0-2.6-0.6-3.5-1.6c-2.4-2.8-4.9-5.6-7.4-8.3
		c-1.7-1.9-1.6-4.9,0.3-6.6c1.9-1.7,4.9-1.6,6.6,0.3c2.5,2.8,5.1,5.7,7.5,8.5c1.7,2,1.5,4.9-0.5,6.6
		C1042.2,411.4,1041.1,411.8,1040,411.8z M367,403.8c-1.1,0-2.2-0.4-3.1-1.2c-1.9-1.7-2.1-4.7-0.3-6.6c2.5-2.8,5.1-5.6,7.7-8.3
		c1.8-1.9,4.7-1.9,6.6-0.2c1.9,1.8,1.9,4.7,0.2,6.6c-2.5,2.7-5.1,5.4-7.6,8.2C369.6,403.3,368.3,403.8,367,403.8z M1019.7,389.7
		c-1.2,0-2.4-0.5-3.3-1.4c-2.6-2.6-5.2-5.3-7.9-7.8c-1.9-1.8-1.9-4.8-0.1-6.6c1.8-1.9,4.8-1.9,6.6-0.1c2.7,2.6,5.4,5.3,8.1,8
		c1.8,1.8,1.8,4.8-0.1,6.6C1022,389.3,1020.9,389.7,1019.7,389.7z M387.9,382.3c-1.2,0-2.4-0.5-3.4-1.4c-1.8-1.9-1.7-4.8,0.1-6.6
		c2.7-2.6,5.5-5.2,8.3-7.8c1.9-1.8,4.9-1.6,6.6,0.3c1.8,1.9,1.6,4.9-0.3,6.6c-2.7,2.5-5.4,5.1-8.1,7.6
		C390.2,381.8,389,382.3,387.9,382.3z M997.9,369.1c-1.1,0-2.2-0.4-3.1-1.2c-2.8-2.4-5.6-4.9-8.4-7.3c-2-1.7-2.2-4.6-0.6-6.6
		c1.7-2,4.6-2.2,6.6-0.6c2.9,2.4,5.8,4.9,8.6,7.4c1.9,1.7,2.1,4.7,0.4,6.6C1000.5,368.6,999.2,369.1,997.9,369.1z M410.1,362.1
		c-1.3,0-2.6-0.6-3.6-1.7c-1.7-2-1.4-4.9,0.5-6.6c2.9-2.4,5.8-4.9,8.8-7.2c2-1.6,5-1.3,6.6,0.7c1.6,2,1.3,5-0.7,6.6
		c-2.9,2.3-5.8,4.7-8.6,7.1C412.2,361.8,411.2,362.1,410.1,362.1z M974.8,349.9c-1,0-2-0.3-2.9-1c-2.9-2.3-5.9-4.5-8.9-6.7
		c-2.1-1.5-2.5-4.5-1-6.5c1.5-2.1,4.5-2.5,6.5-1c3,2.2,6.1,4.6,9.1,6.9c2,1.6,2.4,4.5,0.8,6.6C977.6,349.3,976.2,349.9,974.8,349.9z
		 M433.6,343.5c-1.4,0-2.8-0.7-3.8-1.9c-1.5-2.1-1.1-5,1-6.5c3-2.2,6.1-4.5,9.2-6.6c2.1-1.5,5-1,6.5,1.1c1.5,2.1,1,5-1.1,6.5
		c-3,2.1-6.1,4.3-9,6.5C435.5,343.2,434.6,343.5,433.6,343.5z M950.5,332.3c-0.9,0-1.8-0.3-2.6-0.8c-3.1-2.1-6.2-4.1-9.3-6.1
		c-2.2-1.4-2.8-4.3-1.4-6.5c1.4-2.2,4.3-2.8,6.5-1.4c3.2,2,6.4,4.1,9.5,6.2c2.1,1.4,2.7,4.4,1.3,6.5
		C953.5,331.6,952,332.3,950.5,332.3z M458.3,326.5c-1.5,0-3.1-0.8-3.9-2.2c-1.4-2.2-0.8-5.1,1.4-6.5c3.2-2,6.4-4,9.6-6
		c2.2-1.3,5.1-0.6,6.4,1.6c1.3,2.2,0.6,5.1-1.6,6.4c-3.2,1.9-6.3,3.9-9.4,5.9C460,326.3,459.1,326.5,458.3,326.5z M925.1,316.4
		c-0.8,0-1.6-0.2-2.3-0.6c-3.2-1.9-6.5-3.7-9.7-5.5c-2.3-1.2-3.1-4.1-1.9-6.4c1.2-2.3,4.1-3.1,6.4-1.9c3.3,1.8,6.7,3.7,9.9,5.6
		c2.2,1.3,3,4.2,1.7,6.4C928.3,315.5,926.7,316.4,925.1,316.4z M484,311.2c-1.7,0-3.3-0.9-4.1-2.4c-1.2-2.3-0.4-5.1,1.8-6.4
		c3.3-1.8,6.7-3.6,10-5.3c2.3-1.2,5.1-0.3,6.3,2c1.2,2.3,0.3,5.1-2,6.3c-3.3,1.7-6.6,3.5-9.8,5.2C485.5,311.1,484.7,311.2,484,311.2
		z M898.6,302.2c-0.7,0-1.4-0.2-2.1-0.5c-3.3-1.6-6.7-3.3-10.1-4.8c-2.3-1.1-3.4-3.9-2.3-6.2s3.9-3.4,6.2-2.3
		c3.4,1.6,6.9,3.2,10.3,4.9c2.3,1.1,3.3,4,2.1,6.3C902,301.2,900.4,302.2,898.6,302.2z M510.7,297.7c-1.8,0-3.5-1-4.2-2.7
		c-1.1-2.3-0.1-5.1,2.3-6.2c3.4-1.6,6.9-3.2,10.3-4.7c2.4-1,5.1,0.1,6.2,2.4c1,2.4-0.1,5.1-2.4,6.2c-3.4,1.5-6.8,3-10.1,4.6
		C512,297.6,511.3,297.7,510.7,297.7z M871.3,289.8c-0.6,0-1.2-0.1-1.8-0.4c-3.4-1.4-6.9-2.8-10.4-4.1c-2.4-0.9-3.6-3.6-2.7-6
		c0.9-2.4,3.6-3.6,6-2.7c3.5,1.4,7.1,2.8,10.6,4.2c2.4,1,3.5,3.7,2.5,6.1C874.8,288.7,873.1,289.8,871.3,289.8z M538.2,286
		c-1.9,0-3.6-1.1-4.4-3c-0.9-2.4,0.3-5.1,2.7-6.1c3.5-1.4,7.1-2.7,10.7-4c2.4-0.9,5.1,0.4,6,2.8c0.9,2.4-0.4,5.1-2.8,6
		c-3.5,1.2-7,2.6-10.4,3.9C539.3,285.9,538.7,286,538.2,286z M843.1,279.2c-0.5,0-1-0.1-1.5-0.2c-3.5-1.2-7.1-2.3-10.6-3.4
		c-2.5-0.8-3.9-3.4-3.1-5.9c0.8-2.5,3.4-3.9,5.9-3.1c3.6,1.1,7.3,2.3,10.9,3.5c2.4,0.8,3.8,3.5,2.9,5.9
		C846.9,278,845.1,279.2,843.1,279.2z M566.5,276.1c-2,0-3.8-1.3-4.5-3.3c-0.8-2.5,0.6-5.1,3.1-5.9c3.6-1.1,7.3-2.2,10.9-3.2
		c2.5-0.7,5.1,0.7,5.8,3.2c0.7,2.5-0.7,5.1-3.2,5.8c-3.6,1-7.2,2.1-10.7,3.2C567.4,276.1,566.9,276.1,566.5,276.1z M814.3,270.6
		c-0.4,0-0.8-0.1-1.2-0.2c-3.6-0.9-7.2-1.8-10.8-2.7c-2.5-0.6-4.1-3.1-3.5-5.6c0.6-2.5,3.1-4.1,5.6-3.5c3.7,0.9,7.4,1.8,11,2.7
		c2.5,0.7,4,3.2,3.3,5.7C818.3,269.2,816.4,270.6,814.3,270.6z M595.4,268.2c-2.1,0-4-1.4-4.5-3.6c-0.6-2.5,1-5,3.5-5.6
		c3.7-0.9,7.4-1.7,11.1-2.5c2.5-0.5,5,1.1,5.5,3.6c0.5,2.5-1.1,5-3.6,5.5c-3.6,0.8-7.3,1.6-10.9,2.4
		C596.1,268.1,595.8,268.2,595.4,268.2z M785.1,264c-0.3,0-0.6,0-0.9-0.1c-3.6-0.7-7.3-1.4-11-2c-2.5-0.4-4.3-2.8-3.9-5.4
		c0.4-2.5,2.8-4.3,5.4-3.8c3.7,0.6,7.5,1.3,11.2,2c2.5,0.5,4.2,2.9,3.7,5.5C789.3,262.4,787.3,264,785.1,264z M624.8,262.2
		c-2.2,0-4.2-1.6-4.6-3.9c-0.4-2.5,1.3-5,3.8-5.4c3.7-0.6,7.5-1.2,11.2-1.8c2.6-0.4,4.9,1.4,5.3,4c0.4,2.6-1.4,4.9-4,5.3
		c-3.7,0.5-7.4,1.1-11,1.7C625.3,262.2,625,262.2,624.8,262.2z M755.5,259.3c-0.2,0-0.4,0-0.6,0c-3.7-0.5-7.4-0.9-11.1-1.2
		c-2.6-0.3-4.5-2.5-4.2-5.1c0.3-2.6,2.5-4.5,5.1-4.2c3.8,0.4,7.6,0.8,11.3,1.2c2.6,0.3,4.4,2.7,4.1,5.2
		C759.8,257.6,757.8,259.3,755.5,259.3z M654.5,258.2c-2.4,0-4.4-1.8-4.7-4.2c-0.3-2.6,1.6-4.9,4.2-5.1c3.8-0.4,7.6-0.7,11.3-1
		c2.6-0.2,4.8,1.7,5,4.3c0.2,2.6-1.7,4.8-4.3,5c-3.7,0.3-7.4,0.6-11.1,1C654.8,258.2,654.6,258.2,654.5,258.2z M725.6,256.6
		c-0.1,0-0.2,0-0.3,0c-3.7-0.2-7.4-0.4-11.1-0.5c-2.6-0.1-4.6-2.2-4.5-4.8c0.1-2.6,2.3-4.6,4.8-4.5c3.8,0.1,7.6,0.3,11.4,0.5
		c2.6,0.1,4.6,2.4,4.4,4.9C730.1,254.7,728.1,256.6,725.6,256.6z M684.4,256.2c-2.5,0-4.6-2-4.7-4.5c-0.1-2.6,1.9-4.7,4.5-4.8
		c3.8-0.1,7.6-0.2,11.3-0.2c2.6,0,4.7,2,4.7,4.6c0,2.6-2,4.7-4.6,4.7c-3.7,0-7.4,0.1-11.1,0.2C684.5,256.2,684.5,256.2,684.4,256.2z
		"/>
	<g>
		<polygon class="st1" points="765.7,1002.3 772.2,1015.5 786.7,1017.6 776.2,1027.8 778.7,1042.3 765.7,1035.5 752.7,1042.3 
			755.2,1027.8 744.7,1017.6 759.2,1015.5 		"/>
		<polygon class="st1" points="698.6,1002.3 705.1,1015.5 719.6,1017.6 709.1,1027.8 711.6,1042.3 698.6,1035.5 685.6,1042.3 
			688.1,1027.8 677.6,1017.6 692.1,1015.5 		"/>
		<polygon class="st1" points="631.5,1002.3 638,1015.5 652.5,1017.6 642,1027.8 644.5,1042.3 631.5,1035.5 618.5,1042.3 
			621,1027.8 610.5,1017.6 625,1015.5 		"/>
	</g>
</g>
</svg>
